<mxfile host="app.diagrams.net" modified="2023-08-08T08:08:49.312Z" agent="Mozilla/5.0 (Windows NT 10.0; Win64; x64) AppleWebKit/537.36 (KHTML, like Gecko) Chrome/115.0.0.0 Safari/537.36" etag="swyXLF67gLqgeEnsF1YI" version="21.6.6" type="github">
  <diagram name="페이지-1" id="qlfvh8KpS07_tEr72ZWR">
    <mxGraphModel dx="954" dy="1739" grid="1" gridSize="10" guides="1" tooltips="1" connect="1" arrows="1" fold="1" page="1" pageScale="1" pageWidth="827" pageHeight="1169" math="0" shadow="0">
      <root>
        <mxCell id="0" />
        <mxCell id="1" parent="0" />
        <mxCell id="4al3TWf1uTvyVPPSSl-r-8" value="" style="edgeStyle=orthogonalEdgeStyle;rounded=0;orthogonalLoop=1;jettySize=auto;html=1;" edge="1" parent="1" source="4al3TWf1uTvyVPPSSl-r-1" target="4al3TWf1uTvyVPPSSl-r-3">
          <mxGeometry relative="1" as="geometry" />
        </mxCell>
        <mxCell id="4al3TWf1uTvyVPPSSl-r-1" value="비회원" style="rounded=0;whiteSpace=wrap;html=1;" vertex="1" parent="1">
          <mxGeometry x="80" y="160" width="120" height="60" as="geometry" />
        </mxCell>
        <mxCell id="4al3TWf1uTvyVPPSSl-r-2" value="상품목록" style="rounded=0;whiteSpace=wrap;html=1;" vertex="1" parent="1">
          <mxGeometry x="240" y="80" width="120" height="60" as="geometry" />
        </mxCell>
        <mxCell id="4al3TWf1uTvyVPPSSl-r-6" value="" style="edgeStyle=orthogonalEdgeStyle;rounded=0;orthogonalLoop=1;jettySize=auto;html=1;entryX=0;entryY=0.5;entryDx=0;entryDy=0;exitX=1;exitY=0.5;exitDx=0;exitDy=0;" edge="1" parent="1" source="4al3TWf1uTvyVPPSSl-r-3" target="4al3TWf1uTvyVPPSSl-r-5">
          <mxGeometry relative="1" as="geometry">
            <mxPoint x="360" y="120" as="sourcePoint" />
          </mxGeometry>
        </mxCell>
        <mxCell id="4al3TWf1uTvyVPPSSl-r-25" value="" style="edgeStyle=orthogonalEdgeStyle;rounded=0;orthogonalLoop=1;jettySize=auto;html=1;exitX=1;exitY=0.5;exitDx=0;exitDy=0;entryX=0;entryY=0.5;entryDx=0;entryDy=0;" edge="1" parent="1" source="4al3TWf1uTvyVPPSSl-r-3" target="4al3TWf1uTvyVPPSSl-r-24">
          <mxGeometry relative="1" as="geometry">
            <mxPoint x="360" y="160" as="sourcePoint" />
          </mxGeometry>
        </mxCell>
        <mxCell id="4al3TWf1uTvyVPPSSl-r-3" value="로그인 &amp;amp; 회원가입" style="rounded=0;whiteSpace=wrap;html=1;" vertex="1" parent="1">
          <mxGeometry x="240" y="160" width="120" height="60" as="geometry" />
        </mxCell>
        <mxCell id="4al3TWf1uTvyVPPSSl-r-4" value="게시판" style="rounded=0;whiteSpace=wrap;html=1;" vertex="1" parent="1">
          <mxGeometry x="240" y="240" width="120" height="60" as="geometry" />
        </mxCell>
        <mxCell id="4al3TWf1uTvyVPPSSl-r-13" value="" style="edgeStyle=orthogonalEdgeStyle;rounded=0;orthogonalLoop=1;jettySize=auto;html=1;" edge="1" parent="1" source="4al3TWf1uTvyVPPSSl-r-5" target="4al3TWf1uTvyVPPSSl-r-12">
          <mxGeometry relative="1" as="geometry">
            <Array as="points">
              <mxPoint x="490" y="-60" />
            </Array>
          </mxGeometry>
        </mxCell>
        <mxCell id="4al3TWf1uTvyVPPSSl-r-20" value="" style="edgeStyle=orthogonalEdgeStyle;rounded=0;orthogonalLoop=1;jettySize=auto;html=1;" edge="1" parent="1" source="4al3TWf1uTvyVPPSSl-r-5" target="4al3TWf1uTvyVPPSSl-r-19">
          <mxGeometry relative="1" as="geometry" />
        </mxCell>
        <mxCell id="4al3TWf1uTvyVPPSSl-r-5" value="회원" style="rounded=0;whiteSpace=wrap;html=1;" vertex="1" parent="1">
          <mxGeometry x="430" y="20" width="120" height="60" as="geometry" />
        </mxCell>
        <mxCell id="4al3TWf1uTvyVPPSSl-r-11" value="" style="endArrow=classic;html=1;rounded=0;exitX=0.5;exitY=1;exitDx=0;exitDy=0;entryX=0;entryY=0.5;entryDx=0;entryDy=0;" edge="1" parent="1" source="4al3TWf1uTvyVPPSSl-r-1" target="4al3TWf1uTvyVPPSSl-r-4">
          <mxGeometry width="50" height="50" relative="1" as="geometry">
            <mxPoint x="150" y="310" as="sourcePoint" />
            <mxPoint x="250" y="260" as="targetPoint" />
            <Array as="points">
              <mxPoint x="140" y="270" />
            </Array>
          </mxGeometry>
        </mxCell>
        <mxCell id="4al3TWf1uTvyVPPSSl-r-18" value="" style="edgeStyle=orthogonalEdgeStyle;rounded=0;orthogonalLoop=1;jettySize=auto;html=1;" edge="1" parent="1" source="4al3TWf1uTvyVPPSSl-r-12" target="4al3TWf1uTvyVPPSSl-r-17">
          <mxGeometry relative="1" as="geometry" />
        </mxCell>
        <mxCell id="4al3TWf1uTvyVPPSSl-r-12" value="게시판&amp;nbsp; 작성&lt;br&gt;&amp;nbsp;&amp;amp;&lt;br&gt;게시판 상세 내용" style="rounded=0;whiteSpace=wrap;html=1;" vertex="1" parent="1">
          <mxGeometry x="570" y="-90" width="120" height="60" as="geometry" />
        </mxCell>
        <mxCell id="4al3TWf1uTvyVPPSSl-r-14" value="" style="edgeStyle=orthogonalEdgeStyle;rounded=0;orthogonalLoop=1;jettySize=auto;html=1;exitX=0.5;exitY=0;exitDx=0;exitDy=0;entryX=0;entryY=0.5;entryDx=0;entryDy=0;" edge="1" parent="1" source="4al3TWf1uTvyVPPSSl-r-1" target="4al3TWf1uTvyVPPSSl-r-2">
          <mxGeometry relative="1" as="geometry">
            <mxPoint x="140" y="140" as="sourcePoint" />
            <mxPoint x="220" y="60" as="targetPoint" />
            <Array as="points">
              <mxPoint x="140" y="110" />
            </Array>
          </mxGeometry>
        </mxCell>
        <mxCell id="4al3TWf1uTvyVPPSSl-r-17" value="게시판 댓글" style="rounded=0;whiteSpace=wrap;html=1;" vertex="1" parent="1">
          <mxGeometry x="770" y="-90" width="120" height="60" as="geometry" />
        </mxCell>
        <mxCell id="4al3TWf1uTvyVPPSSl-r-19" value="쪽지" style="rounded=0;whiteSpace=wrap;html=1;" vertex="1" parent="1">
          <mxGeometry x="630" y="20" width="120" height="60" as="geometry" />
        </mxCell>
        <mxCell id="4al3TWf1uTvyVPPSSl-r-40" style="edgeStyle=orthogonalEdgeStyle;rounded=0;orthogonalLoop=1;jettySize=auto;html=1;exitX=1;exitY=0.5;exitDx=0;exitDy=0;entryX=0;entryY=0.5;entryDx=0;entryDy=0;" edge="1" parent="1" source="4al3TWf1uTvyVPPSSl-r-24" target="4al3TWf1uTvyVPPSSl-r-31">
          <mxGeometry relative="1" as="geometry" />
        </mxCell>
        <mxCell id="4al3TWf1uTvyVPPSSl-r-41" style="edgeStyle=orthogonalEdgeStyle;rounded=0;orthogonalLoop=1;jettySize=auto;html=1;exitX=0.5;exitY=1;exitDx=0;exitDy=0;entryX=0;entryY=0.5;entryDx=0;entryDy=0;" edge="1" parent="1" source="4al3TWf1uTvyVPPSSl-r-24" target="4al3TWf1uTvyVPPSSl-r-26">
          <mxGeometry relative="1" as="geometry" />
        </mxCell>
        <mxCell id="4al3TWf1uTvyVPPSSl-r-24" value="관리자" style="rounded=0;whiteSpace=wrap;html=1;" vertex="1" parent="1">
          <mxGeometry x="430" y="300" width="120" height="60" as="geometry" />
        </mxCell>
        <mxCell id="4al3TWf1uTvyVPPSSl-r-26" value="회원 관리" style="rounded=0;whiteSpace=wrap;html=1;" vertex="1" parent="1">
          <mxGeometry x="630" y="440" width="120" height="60" as="geometry" />
        </mxCell>
        <mxCell id="4al3TWf1uTvyVPPSSl-r-29" value="게시판 관리" style="rounded=0;whiteSpace=wrap;html=1;" vertex="1" parent="1">
          <mxGeometry x="630" y="160" width="120" height="60" as="geometry" />
        </mxCell>
        <mxCell id="4al3TWf1uTvyVPPSSl-r-39" value="" style="edgeStyle=orthogonalEdgeStyle;rounded=0;orthogonalLoop=1;jettySize=auto;html=1;entryX=0;entryY=0.5;entryDx=0;entryDy=0;exitX=0.5;exitY=0;exitDx=0;exitDy=0;" edge="1" parent="1" source="4al3TWf1uTvyVPPSSl-r-24" target="4al3TWf1uTvyVPPSSl-r-29">
          <mxGeometry relative="1" as="geometry">
            <mxPoint x="550" y="330" as="sourcePoint" />
            <mxPoint x="670" y="440" as="targetPoint" />
          </mxGeometry>
        </mxCell>
        <mxCell id="4al3TWf1uTvyVPPSSl-r-31" value="상품 관리" style="rounded=0;whiteSpace=wrap;html=1;" vertex="1" parent="1">
          <mxGeometry x="630" y="300" width="120" height="60" as="geometry" />
        </mxCell>
      </root>
    </mxGraphModel>
  </diagram>
</mxfile>
